<svg id="Capa_1" enable-background="new 0 0 510 510" height="512" viewBox="0 0 510 510" width="512" xmlns="http://www.w3.org/2000/svg"><g><path d="m495 90c0-49.626-40.374-90-90-90h-15l-15 45 15 45 30 15 45-15z" fill="#ff835d"/><path d="m390 90-15 30 15 45h1.5c40.528 0 73.5-32.972 73.5-73.5v-1.5z" fill="#fb5858"/><path d="m193.139 75h-28.139c-16.542 0-30-13.458-30-30h-30c0 33.084 26.916 60 60 60h17.878l12.122-15z" fill="#59c36a"/><path d="m228.632 30h-18.632c-16.542 0-30-13.458-30-30h-30c0 30.375 22.693 55.532 52.012 59.452l22.988-14.452z" fill="#59c36a"/><path d="m267.113 419.648c68.59-4.942 122.887-62.322 122.887-132.148v-287.5h-77.5c-73.061 0-132.5 59.439-132.5 132.5v48.757z" fill="#97de3d"/><g><g><g><path d="m300 60h30v30h-30z" fill="#5b5555"/></g></g></g><g><g><path d="m105 420h-105v-30h105l15 15z" fill="#e68a44"/></g></g><path d="m266.939 420h161.848l55.607 55.606 21.212-21.212-34.393-34.394h38.787v-30h-83.787l34.393-34.394-21.212-21.212-55.607 55.606h-105.044l-8.743 15z" fill="#bc5f19"/><path d="m210 483.225c45.119-29.479 75-80.424 75-138.225v-75c0-49.626-40.374-90-90-90s-90 40.374-90 90v15z" fill="#59c36a"/><path d="m120 285h-15v225h15c33.181 0 64.099-9.853 90-26.775v-108.225c0-49.626-40.374-90-90-90z" fill="#00a66c"/></g></svg>